<svg width="256" height="256" viewBox="0 0 256 256" fill="none" xmlns="http://www.w3.org/2000/svg">
<g clip-path="url(#clip0)">
<path d="M182.4 89.75H136.24L153.28 38.0328C154.88 31.9766 150.28 26 144 26H86.3998C81.5998 26 77.5198 29.5461 76.8798 34.2875L64.0798 129.912C63.3198 135.65 67.7998 140.75 73.5998 140.75H121.08L102.64 218.246C101.2 224.302 105.84 230 111.96 230C115.32 230 118.52 228.247 120.28 225.219L190.68 104.094C194.4 97.7586 189.8 89.75 182.4 89.75Z" fill="#EB9A49"/>
<path d="M131.491 88.1853L129.328 94.75H136.24H182.4C185.973 94.75 188.112 98.5928 186.368 101.562L186.363 101.572L186.357 101.581L115.957 222.706C115.116 224.154 113.586 225 111.96 225C109.004 225 106.826 222.255 107.504 219.403L125.944 141.907L127.409 135.75H121.08H73.5998C70.8107 135.75 68.6765 133.3 69.0362 130.572C69.0363 130.571 69.0364 130.57 69.0365 130.569L81.8349 34.9563C81.835 34.9556 81.8351 34.9548 81.8352 34.954C82.1388 32.7139 84.0836 31 86.3998 31H144C146.962 31 149.146 33.7961 148.476 36.6365L131.491 88.1853Z" stroke="white" stroke-opacity="0.2" stroke-width="10"/>
</g>
<defs>
<clipPath id="clip0">
<rect width="128" height="204" fill="white" transform="translate(64 26)"/>
</clipPath>
</defs>
</svg>