<svg width="256" height="256" viewBox="0 0 256 256" fill="none" xmlns="http://www.w3.org/2000/svg">
<path d="M222.522 152.513L205.117 142.395C206.874 132.853 206.874 123.065 205.117 113.523L222.522 103.405C224.524 102.253 225.423 99.8679 224.769 97.6469C220.234 83.005 212.512 69.7615 202.42 58.739C200.868 57.0527 198.334 56.6414 196.373 57.793L178.968 67.9107C171.654 61.5769 163.238 56.6825 154.127 53.4745V33.2802C154.127 30.977 152.533 28.9617 150.286 28.4681C135.291 25.0956 119.929 25.2601 105.67 28.4681C103.422 28.9617 101.829 30.977 101.829 33.2802V53.5156C92.7586 56.7648 84.342 61.6591 76.9876 67.9518L59.6232 57.8341C57.6212 56.6825 55.1289 57.0527 53.5763 58.7801C43.4845 69.7615 35.7624 83.005 31.2272 97.688C30.5326 99.909 31.4724 102.294 33.4744 103.446L50.8797 113.564C49.1228 123.106 49.1228 132.894 50.8797 142.436L33.4744 152.554C31.4724 153.706 30.5735 156.091 31.2272 158.312C35.7624 172.954 43.4845 186.197 53.5763 197.22C55.1289 198.906 57.662 199.317 59.6232 198.166L77.0285 188.048C84.342 194.382 92.7586 199.276 101.87 202.484V222.72C101.87 225.023 103.463 227.038 105.71 227.532C120.705 230.904 136.068 230.74 150.327 227.532C152.574 227.038 154.167 225.023 154.167 222.72V202.484C163.238 199.235 171.654 194.341 179.009 188.048L196.414 198.166C198.416 199.317 200.908 198.947 202.461 197.22C212.553 186.238 220.275 172.995 224.81 158.312C225.423 156.05 224.524 153.664 222.522 152.513V152.513ZM127.978 160.862C109.96 160.862 95.2918 146.097 95.2918 127.959C95.2918 109.821 109.96 95.0558 127.978 95.0558C145.996 95.0558 160.664 109.821 160.664 127.959C160.664 146.097 145.996 160.862 127.978 160.862Z" fill="#7F8694"/>
<path d="M200.199 141.49L199.562 144.95L202.604 146.718L219.992 156.826C219.999 156.851 220.005 156.898 219.993 156.964C215.682 170.853 208.372 183.384 198.827 193.785L181.522 183.725L178.454 181.942L175.758 184.249C168.862 190.149 160.975 194.735 152.481 197.777L149.167 198.964V202.484V222.668C135.65 225.699 121.083 225.854 106.87 222.668V202.484V198.944L103.53 197.768C95.0131 194.769 87.1431 190.193 80.3018 184.269L77.6027 181.931L74.5157 183.725L57.2105 193.785C47.646 183.321 40.3274 170.763 36.0206 156.888C36.018 156.877 36.0168 156.867 36.0165 156.86L53.3925 146.759L56.4341 144.991L55.797 141.531C54.1504 132.588 54.1504 123.412 55.797 114.469L56.4341 111.009L53.3925 109.241L36.0124 99.138C40.3191 85.2084 47.6423 72.6416 57.2103 62.2151L74.4704 72.272L77.5394 74.0602L80.2383 71.7509C87.134 65.8507 95.0212 61.2654 103.515 58.2227L106.829 57.0356V53.5156V33.3323C120.347 30.3005 134.914 30.1456 149.127 33.3323V53.4745V57.0149L152.466 58.1907C160.983 61.1896 168.853 65.7654 175.695 71.6903L178.394 74.0279L181.481 72.2334L198.786 62.1739C208.35 72.6375 215.669 85.1957 219.976 99.0704C219.978 99.0818 219.98 99.0915 219.98 99.0993L202.604 109.2L199.562 110.968L200.199 114.428C201.846 123.371 201.846 132.546 200.199 141.49ZM220.029 156.847C220.024 156.844 220.017 156.839 220.01 156.833L222.521 152.514L220.035 156.837L220.033 156.836C220.032 156.839 220.031 156.842 220.03 156.845L220.029 156.847ZM57.295 62.1224C57.295 62.1224 57.295 62.1224 57.2949 62.1225L57.295 62.1224ZM90.2918 127.959C90.2918 148.827 107.167 165.862 127.978 165.862C148.789 165.862 165.664 148.827 165.664 127.959C165.664 107.091 148.789 90.0558 127.978 90.0558C107.167 90.0558 90.2918 107.091 90.2918 127.959Z" stroke="white" stroke-opacity="0.2" stroke-width="10"/>
</svg>
