<svg xmlns="http://www.w3.org/2000/svg" xmlns:xlink="http://www.w3.org/1999/xlink" width="256" height="256" viewBox="0 0 256 256"><defs><clipPath id="a"><rect width="204" height="204" fill="#fff"/></clipPath><clipPath id="c"><rect width="256" height="256"/></clipPath></defs><g id="b" clip-path="url(#c)"><g transform="translate(26 26)" clip-path="url(#a)"><path d="M184.2,24.942c-21.835-18.607-54.307-15.26-74.349,5.419L102,38.449l-7.849-8.088C74.149,9.682,41.637,6.335,19.8,24.942-5.22,46.3-6.534,84.628,15.858,107.777l77.1,79.608a12.491,12.491,0,0,0,18.049,0l77.1-79.608C210.534,84.628,209.22,46.3,184.2,24.942Z" fill="#eb496a"/><path d="M113.437,33.843l-7.849,8.088L102,45.629l-3.588-3.7-7.849-8.088-.006-.006C72.173,14.83,42.642,12.049,23.047,28.747.253,48.2-.965,83.192,19.449,104.3l0,0m93.988-70.46,0,0c18.426-19.013,47.918-21.79,67.512-5.1,22.795,19.456,24.013,54.446,3.56,75.553h0l-77.1,79.607a7.492,7.492,0,0,1-10.868,0m0,0M19.452,104.3l77.095,79.605m0,0" fill="none" stroke="rgba(255,255,255,0.2)" stroke-width="10"/></g></g></svg>