<svg width="256" height="256" viewBox="0 0 256 256" fill="none" xmlns="http://www.w3.org/2000/svg">
<path d="M230 128C230 184.333 184.333 230 128 230C71.6668 230 26 184.333 26 128C26 71.6668 71.6668 26 128 26C184.333 26 230 71.6668 230 128ZM116.202 182.008L191.879 106.331C194.449 103.761 194.449 99.5942 191.879 97.0245L182.573 87.7182C180.003 85.1481 175.836 85.1481 173.266 87.7182L111.548 149.436L82.7338 120.621C80.1641 118.051 75.9973 118.051 73.4271 120.621L64.1209 129.927C61.5511 132.497 61.5511 136.664 64.1209 139.234L106.895 182.008C109.465 184.578 113.632 184.578 116.202 182.008Z" fill="#49BFEB"/>
<path d="M119.737 185.544L119.737 185.544L195.415 109.866C199.937 105.344 199.937 98.0113 195.415 93.489L186.109 84.183C186.109 84.1829 186.109 84.1828 186.108 84.1827C181.586 79.6597 174.253 79.6602 169.731 84.1827L111.548 142.365L86.2693 117.086C81.7468 112.563 74.4144 112.563 69.8919 117.085L69.8916 117.086L60.5853 126.392C56.063 130.914 56.063 138.247 60.5853 142.769L103.36 185.543C107.882 190.066 115.214 190.066 119.737 185.544ZM225 128C225 181.572 181.572 225 128 225C74.4282 225 31 181.572 31 128C31 74.4282 74.4282 31 128 31C181.572 31 225 74.4282 225 128Z" stroke="white" stroke-opacity="0.2" stroke-width="10"/>
</svg>
