<?xml version="1.0" standalone="no"?>
<!DOCTYPE svg PUBLIC "-//W3C//DTD SVG 20010904//EN"
 "http://www.w3.org/TR/2001/REC-SVG-20010904/DTD/svg10.dtd">
<svg version="1.0" xmlns="http://www.w3.org/2000/svg"
 width="608.000000pt" height="608.000000pt" viewBox="0 0 608.000000 608.000000"
 preserveAspectRatio="xMidYMid meet">
<metadata>
Created by potrace 1.11, written by Peter Selinger 2001-2013
</metadata>
<g transform="translate(0.000000,608.000000) scale(0.100000,-0.100000)"
fill="#000000" stroke="none">
<path d="M2600 6070 c-25 -4 -65 -11 -89 -15 -23 -3 -54 -11 -68 -16 -14 -5
-28 -7 -31 -4 -3 2 -11 0 -19 -7 -7 -6 -16 -8 -19 -5 -3 3 -17 2 -30 -3 -14
-6 -36 -12 -50 -14 -33 -6 -326 -106 -339 -115 -5 -4 -37 -18 -70 -32 -102
-40 -267 -129 -405 -217 -57 -37 -237 -167 -256 -186 -6 -6 -33 -29 -59 -51
-60 -50 -219 -209 -282 -282 -27 -31 -56 -64 -65 -74 -10 -11 -18 -23 -18 -28
0 -5 -4 -11 -9 -13 -20 -7 -188 -257 -249 -370 -169 -312 -250 -538 -317 -888
-24 -121 -24 -137 -22 -530 2 -223 6 -416 10 -430 4 -14 14 -61 22 -105 9 -44
22 -105 31 -135 8 -30 17 -64 19 -75 15 -68 88 -273 130 -363 14 -29 25 -59
25 -66 0 -8 3 -16 7 -18 8 -3 56 -98 55 -108 0 -3 5 -12 12 -20 7 -8 27 -40
43 -70 48 -89 57 -103 85 -141 16 -20 28 -40 28 -43 0 -7 138 -192 162 -217 7
-8 26 -30 42 -49 49 -61 169 -182 257 -260 46 -41 86 -77 89 -80 3 -3 41 -32
85 -65 44 -33 82 -62 85 -65 13 -13 121 -80 129 -80 5 0 11 -4 13 -8 7 -16
330 -188 373 -198 10 -3 120 -47 160 -64 16 -7 99 -35 140 -47 52 -15 247 -64
270 -67 17 -3 53 -9 80 -14 28 -6 73 -13 100 -16 28 -3 75 -9 105 -13 97 -12
574 -7 610 7 3 1 9 2 14 1 5 -1 32 3 60 9 28 5 71 12 95 15 24 3 47 8 51 10 4
3 25 7 46 11 212 33 610 186 821 315 l61 38 44 -67 c23 -37 45 -71 47 -77 2
-5 7 -12 10 -15 3 -3 22 -25 41 -50 136 -177 325 -331 529 -431 70 -34 134
-65 143 -70 10 -5 25 -9 33 -9 8 0 23 -4 33 -10 25 -14 164 -50 193 -50 14 0
29 -3 32 -7 8 -8 18 -9 160 -18 l108 -7 -4 1743 c-2 959 -6 1764 -9 1789 -17
130 -35 235 -54 322 -3 15 -5 30 -5 33 0 2 -5 19 -10 37 -6 18 -12 40 -14 48
-1 8 -9 35 -16 60 -7 25 -13 50 -15 55 -4 20 -35 110 -44 130 -5 11 -24 58
-41 105 -27 70 -83 188 -178 369 -7 14 -23 36 -34 49 -11 12 -18 22 -14 22 5
0 -103 162 -130 195 -4 6 -24 30 -42 55 -19 25 -39 50 -45 55 -6 6 -32 35 -57
65 -86 103 -191 203 -369 354 -47 40 -170 126 -180 126 -6 0 -10 4 -10 8 0 5
-10 14 -22 21 -13 6 -36 20 -53 31 -16 11 -41 25 -55 32 -14 7 -27 16 -30 19
-9 12 -242 126 -335 165 -79 32 -303 110 -345 119 -8 2 -35 8 -60 14 -50 13
-74 18 -110 25 -14 2 -36 7 -50 10 -14 3 -41 9 -60 12 -51 10 -847 14 -900 4z
m1320 -2794 c46 -5 94 -11 190 -22 30 -3 58 -8 61 -10 4 -2 24 -6 45 -10 22
-3 57 -10 79 -16 22 -5 47 -11 56 -13 91 -18 344 -129 385 -169 6 -7 25 -23
40 -37 204 -174 203 -555 -2 -962 -44 -88 -160 -275 -184 -297 -3 -3 -23 -27
-45 -55 -47 -59 -209 -222 -249 -250 -16 -11 -36 -27 -45 -37 -39 -39 -225
-155 -336 -208 -119 -57 -258 -110 -345 -130 -25 -6 -52 -12 -60 -14 -8 -2
-34 -7 -58 -11 -279 -46 -544 -37 -807 29 -35 9 -201 64 -230 76 -163 69 -319
157 -453 257 -97 72 -293 267 -355 353 -26 36 -50 70 -55 75 -56 74 -149 275
-167 360 -18 91 -22 121 -20 191 3 151 70 275 215 396 25 21 50 42 57 48 7 5
15 10 18 10 4 0 21 11 38 24 43 33 267 146 290 146 9 0 17 4 17 10 0 5 3 9 8
8 8 -2 44 9 87 27 69 29 286 95 363 110 9 1 35 8 57 13 37 10 72 18 120 27 11
2 45 8 75 14 51 10 101 18 160 25 14 2 43 6 65 9 89 14 157 21 300 32 43 3 81
7 83 9 5 5 549 -2 602 -8z"/>
</g>
</svg>
